<svg id="Layer_1" data-name="Layer 1" xmlns="http://www.w3.org/2000/svg" viewBox="0 0 255.92 72.3"><path d="M124.8,268.39v24.2h-5.4v-70h30.7c30.4,0,30.4,45.8,0,45.8Zm0-40.8v35.9h25.3c23.3,0,23.3-35.9,0-35.9Z" transform="translate(-119.4 -222.01)"/><path d="M241.15,292.88h-7.1l-24.2-26.5h-19.1v26.5h-5.4v-70h30.8c15.2,0,22.9,10.9,23,21.8.1,11.41-7.4,21.41-22.7,21.41Zm-50.4-31.6h24.8c12.2,0,17.6-6.9,17.7-16.7.1-8.21-5.5-16.71-17.1-16.71h-25.4Z" transform="translate(-119.4 -222.01)"/><path d="M315.65,258.21c-.1,18.4-11.8,36.11-35.3,36.11s-35.3-17.81-35.3-36.31c0-18.8,11.7-36,35.3-36S315.75,239.31,315.65,258.21Zm-65.3-.1c.1,15.8,10.1,31.21,30,31.21s30.1-15.41,30.1-31.21c0-16.2-10-31.1-30.1-31.1S250.25,241.61,250.35,258.11Z" transform="translate(-119.4 -222.01)"/><path d="M350.62,263.06l24.7,29.12v.09h-6.15l-21.72-26-21.72,26h-6.15v-.09l24.7-29.12,3.17-3.33Z" transform="translate(-119.4 -222.01)"/><path d="M344.28,251.54l-24.7-29.12v-.08h6.15l21.72,26,21.72-26h6.15v.08l-24.7,29.12-3.17,3.33Z" transform="translate(-119.4 -222.01)"/></svg>